<svg width="295" height="248" viewBox="0 0 295 248" fill="none" xmlns="http://www.w3.org/2000/svg">
<path d="M86.4 173C80.2 173 72.5 172.726 63.3 172.177C54.1 171.629 45.7 171.355 38.1 171.355C30.9 171.355 24.1 171.446 17.7 171.629C11.3 171.812 5.6 171.903 0.6 171.903C0.2 171.903 0 171.355 0 170.258C0 169.162 0.2 168.613 0.6 168.613C7 168.613 11.9 168.156 15.3 167.242C18.7 166.329 20.9 164.501 21.9 161.759C23.1 159.017 23.7 154.996 23.7 149.696V22.7559C23.7 17.4554 23.1 13.5256 21.9 10.9667C20.9 8.22504 18.8 6.39725 15.6 5.48336C12.4 4.38669 7.5 3.83836 0.9 3.83836C0.5 3.83836 0.3 3.29002 0.3 2.19335C0.3 1.09668 0.5 0.548348 0.9 0.548348C6.1 0.548348 11.8 0.731123 18 1.09668C24.2 1.27945 30.9 1.37084 38.1 1.37084C45.1 1.37084 52.7 1.18806 60.9 0.822512C69.3 0.274172 76.4 0 82.2 0C103.2 0 121.5 3.65558 137.1 10.9667C152.7 18.2779 164.8 28.2393 173.4 40.851C182 53.4628 186.3 67.6281 186.3 83.3471C186.3 97.0555 183.7 109.484 178.5 120.634C173.3 131.601 166 141.014 156.6 148.873C147.4 156.55 136.7 162.49 124.5 166.694C112.5 170.898 99.8 173 86.4 173ZM83.4 167.517C97.2 167.517 109.4 164.501 120 158.469C130.6 152.437 138.9 143.664 144.9 132.149C151.1 120.451 154.2 106.194 154.2 89.3788C154.2 73.6598 151.4 59.4945 145.8 46.8827C140.2 34.0882 132.2 24.0354 121.8 16.7242C111.6 9.23032 99.4 5.48336 85.2 5.48336C73.4 5.48336 64.9 6.48864 59.7 8.49922C54.7 10.5098 52.2 15.4448 52.2 23.3043V146.68C52.2 153.808 54.2 159.109 58.2 162.582C62.2 165.872 70.6 167.517 83.4 167.517Z" fill="#F8F3EF"/>
<path d="M183.235 226.428C183.235 230.617 183.815 233.8 184.976 235.979C186.136 238.157 188.341 239.581 191.591 240.251C194.84 240.921 199.599 241.257 205.866 241.257H226.757C243.237 241.257 257.165 237.905 268.539 231.203C279.913 224.501 287.456 215.62 291.17 204.562C291.402 204.059 292.098 203.891 293.259 204.059C294.419 204.226 295 204.562 295 205.064C294.304 210.259 293.607 216.542 292.911 223.914C292.215 231.119 291.866 237.822 291.866 244.021C291.866 246.535 290.125 247.791 286.644 247.791H123.696C123.232 247.791 123 247.288 123 246.283C123 245.278 123.232 244.776 123.696 244.775C131.124 244.775 136.695 244.356 140.409 243.519C144.355 242.681 146.909 241.005 148.069 238.492C149.462 235.979 150.158 232.293 150.158 227.434V157.003C153.706 154.76 157.075 152.309 160.263 149.648C169.663 141.789 176.963 132.376 182.163 121.409C182.534 120.613 182.891 119.809 183.235 119V226.428Z" fill="#F8F3EF"/>
</svg>
